#!OML:ASF X:\für Bonn\!DataBase\2005_08_10_Bjorn_Final\c3d\bjorn.ASF
:FULLY-SPECIFIED
:DEGREES
63
root -2.36085 18.2059 12.2465 -185.52 23.7359 177.596
lowerback -3.18284 4.98191 -3.40881
upperback 7.58899 8.15078 -4.52402
thorax 10.1031 4.22733 -1.91144
lowerneck -4.67154 1.1576 5.17484
upperneck 12.8223 1.69868 -1.87637
head 4.6688 1.121 -1.32339
rclavicle 1.33186e-014 3.33958e-014
rhumerus 39.6045 18.0769 -80.556
rradius 94.2359
rwrist 36.3745
rhand -47.5105 13.4374
rfingers 7.12502
rthumb -20.198 -15.5325
lclavicle 1.33186e-014 3.33958e-014
lhumerus 37.4846 -34.9037 75.7353
lradius 84.9977
lwrist 41.151
lhand -43.0086 -9.6327
lfingers 7.12502
lthumb -15.8667 19.7372
rfemur 550.413 -171.355 -533.386
rtibia 29.7051
rfoot -28.3239 6.23099
rtoes -35.963
lfemur 340.529 2.94737 344.383
ltibia 47.4954
lfoot -16.6973 7.51744
ltoes -20.9083
64
root -2.34063 18.186 12.2944 -185.607 23.6043 177.64
lowerback -3.51906 4.91853 -3.13843
upperback 7.5483 8.03264 -4.46072
thorax 10.2793 4.17227 -1.9739
lowerneck -4.7171 1.18627 5.29174
upperneck 13.2274 1.77133 -2.00631
head 4.80532 1.16978 -1.37743
rclavicle -1.13705e-013 1.74931e-014
rhumerus 40.4673 17.96 -80.2918
rradius 93.8836
rwrist 36.6033
rhand -47.6218 13.2355
rfingers 7.12502
rthumb -20.3049 -15.7231
lclavicle -1.13705e-013 1.74931e-014
lhumerus 38.2845 -34.1416 75.6134
lradius 85.1067
lwrist 41.6629
lhand -43.9171 -9.09483
lfingers 7.12502
lthumb -16.7414 20.2033
rfemur 550.604 -171.359 -533.118
rtibia 29.5088
rfoot -28.9314 5.88693
rtoes -35.5598
lfemur 340.331 2.9504 344.539
ltibia 47.7725
lfoot -16.6027 7.50814
ltoes -21.6279
65
root -2.31965 18.1697 12.3425 -185.657 23.4866 177.732
lowerback -3.87272 4.83534 -2.8572
upperback 7.51123 7.87651 -4.35383
thorax 10.4626 4.09544 -2.00089
lowerneck -4.7131 1.23395 5.37063
upperneck 13.5591 1.88183 -2.1987
head 4.91269 1.22955 -1.44294
rclavicle 2.98177e-015 1.90833e-014
rhumerus 41.2957 17.955 -79.9989
rradius 93.5298
rwrist 36.8389
rhand -47.8369 12.9396
rfingers 7.12502
rthumb -20.5117 -15.9968
lclavicle 2.98177e-015 1.90833e-014
lhumerus 38.9244 -33.3294 75.6463
lradius 85.1477
lwrist 42.1087
lhand -44.8326 -8.65924
lfingers 7.12502
lthumb -17.6226 20.5621
rfemur 550.736 -171.435 -532.771
rtibia 29.36
rfoot -29.5015 5.59401
rtoes -34.8947
lfemur 340.14 3.03884 344.759
ltibia 47.9949
lfoot -16.4841 7.38223
ltoes -21.9639
66
root -2.29916 18.1549 12.3905 -185.707 23.3485 177.827
lowerback -4.21874 4.74091 -2.55871
upperback 7.49344 7.70828 -4.2632
thorax 10.6678 4.01714 -2.0577
lowerneck -4.74458 1.29109 5.43027
upperneck 13.881 1.99847 -2.34493
head 5.02329 1.29295 -1.4904
rclavicle 2.94201e-014 -1.11319e-014
rhumerus 42.1012 17.9779 -79.7213
rradius 93.1906
rwrist 37.0472
rhand -48.0123 12.6544
rfingers 7.12502
rthumb -20.6802 -16.2638
lclavicle 2.94201e-014 -1.11319e-014
lhumerus 39.5298 -32.5279 75.6646
lradius 85.1147
lwrist 42.595
lhand -45.6187 -8.56257
lfingers 7.12502
lthumb -18.379 20.5892
rfemur 550.849 -171.489 -532.438
rtibia 29.2551
rfoot -29.9833 5.36296
rtoes -34.1894
lfemur 339.956 3.16195 344.977
ltibia 48.1746
lfoot -16.3317 7.23816
ltoes -22.4797
67
root -2.2774 18.1436 12.4384 -185.737 23.2291 177.939
lowerback -4.5736 4.65931 -2.24598
upperback 7.48167 7.5574 -4.18221
thorax 10.8892 3.95014 -2.13102
lowerneck -4.8185 1.35202 5.46252
upperneck 14.2347 2.11005 -2.39389
head 5.15022 1.35898 -1.50285
rclavicle -2.78299e-015 -4.45278e-014
rhumerus 42.8642 17.9844 -79.4797
rradius 92.8537
rwrist 37.17
rhand -48.1288 12.3964
rfingers 7.12502
rthumb -20.7921 -16.5096
lclavicle -2.78299e-015 -4.45278e-014
lhumerus 40.0516 -31.7674 75.7152
lradius 85.0115
lwrist 43.076
lhand -46.1544 -8.76427
lfingers 7.12502
lthumb -18.8942 20.3381
rfemur 550.926 -171.59 -532.068
rtibia 29.1561
rfoot -30.3638 5.19352
rtoes -33.2724
lfemur 339.788 3.35809 345.224
ltibia 48.3061
lfoot -16.1583 7.01856
ltoes -23.0229
68
root -2.25614 18.1344 12.4875 -185.754 23.0921 178.053
lowerback -4.92759 4.57155 -1.96892
upperback 7.47124 7.3956 -4.08037
thorax 11.1031 3.87412 -2.16635
lowerneck -4.89691 1.40581 5.47407
upperneck 14.5892 2.21649 -2.45639
head 5.27813 1.42042 -1.51621
rclavicle 1.8487e-014 7.95139e-014
rhumerus 43.5134 18.0353 -79.2402
rradius 92.5725
rwrist 37.3078
rhand -48.2234 12.1255
rfingers 7.12502
rthumb -20.8831 -16.7705
lclavicle 1.8487e-014 7.95139e-014
lhumerus 40.4675 -31.0129 75.8688
lradius 84.833
lwrist 43.571
lhand -46.5921 -9.07644
lfingers 7.12502
lthumb -19.3151 19.9843
rfemur 550.974 -171.634 -531.72
rtibia 29.0767
rfoot -30.6486 5.05616
rtoes -32.4351
lfemur 339.618 3.58088 345.473
ltibia 48.3969
lfoot -15.9764 6.71962
ltoes -23.3676
69
root -2.23449 18.1293 12.5356 -185.786 22.9505 178.146
lowerback -5.30504 4.49114 -1.72308
upperback 7.50205 7.25527 -3.98322
thorax 11.3765 3.80859 -2.1842
lowerneck -5.00047 1.4553 5.46544
upperneck 14.8901 2.30674 -2.48075
head 5.39289 1.47237 -1.51511
rclavicle 4.27387e-014 -2.54444e-014
rhumerus 44.1398 18.0605 -78.9828
rradius 92.3078
rwrist 37.3749
rhand -48.4473 12.0255
rfingers 7.12502
rthumb -21.0982 -16.8466
lclavicle 4.27387e-014 -2.54444e-014
lhumerus 40.8612 -30.2787 76.0903
lradius 84.6098
lwrist 44.0705
lhand -46.9667 -9.38866
lfingers 7.12502
lthumb -19.6752 19.6356
rfemur 551.026 -171.687 -531.399
rtibia 29.0077
rfoot -30.8749 5.01275
rtoes -31.4242
lfemur 339.484 3.83351 345.703
ltibia 48.4335
lfoot -15.7817 6.40286
ltoes -23.7089
70
root -2.21236 18.1256 12.5845 -185.788 22.8105 178.271
lowerback -5.68349 4.41389 -1.44445
upperback 7.53121 7.11376 -3.892
thorax 11.6541 3.74642 -2.22834
lowerneck -5.0875 1.49751 5.46979
upperneck 15.1533 2.38375 -2.50072
head 5.49295 1.51768 -1.51567
rclavicle -4.25399e-014 2.38542e-014
rhumerus 44.6631 18.1254 -78.754
rradius 92.097
rwrist 37.4251
rhand -48.7219 11.9832
rfingers 7.12502
rthumb -21.3619 -16.8593
lclavicle -4.25399e-014 2.38542e-014
lhumerus 41.2127 -29.5798 76.3121
lradius 84.3022
lwrist 44.5775
lhand -47.4508 -9.60766
lfingers 7.12502
lthumb -20.1406 19.3683
rfemur 551.041 -171.553 -531.134
rtibia 28.9554
rfoot -30.999 5.16699
rtoes -30.5354
lfemur 339.351 4.13083 345.969
ltibia 48.4341
lfoot -15.5778 6.01343
ltoes -24.1016
71
root -2.1889 18.1245 12.6329 -185.785 22.654 178.387
lowerback -6.08377 4.31974 -1.2064
upperback 7.58347 6.95437 -3.79128
thorax 11.9648 3.67291 -2.2421
lowerneck -5.18959 1.55121 5.42612
upperneck 15.3691 2.47388 -2.51122
head 5.58091 1.56467 -1.5044
rclavicle -1.80894e-014 -1.59028e-014
rhumerus 45.1704 18.2409 -78.5158
rradius 91.8959
rwrist 37.4475
rhand -49.0854 12.053
rfingers 7.12502
rthumb -21.711 -16.7495
lclavicle -1.80894e-014 -1.59028e-014
lhumerus 41.5077 -28.8599 76.5695
lradius 83.9729
lwrist 45.0034
lhand -47.975 -9.43184
lfingers 7.12502
lthumb -20.6444 19.4903
rfemur 551.046 -171.243 -530.965
rtibia 28.9051
rfoot -31.0476 5.35537
rtoes -30.1271
lfemur 339.229 4.39652 346.226
ltibia 48.3872
lfoot -15.349 5.63317
ltoes -24.2433
72
root -2.16601 18.124 12.684 -185.81 22.4874 178.505
lowerback -6.40409 4.24026 -0.962042
upperback 7.62747 6.81121 -3.7023
thorax 12.2211 3.61122 -2.27787
lowerneck -5.22946 1.58334 5.41247
upperneck 15.5282 2.5347 -2.53359
head 5.63988 1.59765 -1.50427
rclavicle -6.50026e-014 2.22639e-014
rhumerus 45.5905 18.3451 -78.2856
rradius 91.7146
rwrist 37.3541
rhand -49.419 12.2153
rfingers 7.12502
rthumb -22.0313 -16.5498
lclavicle -6.50026e-014 2.22639e-014
lhumerus 41.7332 -28.2528 76.8596
lradius 83.5875
lwrist 45.4091
lhand -48.5557 -9.20894
lfingers 7.12502
lthumb -21.2023 19.6516
rfemur 551.069 -170.962 -530.788
rtibia 28.8626
rfoot -31.0677 5.49212
rtoes -29.8378
lfemur 339.155 4.68554 346.486
ltibia 48.3002
lfoot -15.1171 5.26012
ltoes -24.5732
73
root -2.14316 18.1279 12.7362 -185.768 22.3081 178.676
lowerback -6.74408 4.15602 -0.686984
upperback 7.65119 6.64971 -3.60309
thorax 12.4673 3.54184 -2.32376
lowerneck -5.24247 1.6111 5.3527
upperneck 15.6634 2.58747 -2.50451
head 5.68534 1.62736 -1.48109
rclavicle -3.20043e-014 7.31528e-014
rhumerus 45.909 18.4976 -78.1003
rradius 91.5974
rwrist 37.2578
rhand -49.7079 12.3662
rfingers 7.12502
rthumb -22.3087 -16.366
lclavicle -3.20043e-014 7.31528e-014
lhumerus 41.8614 -27.6774 77.1718
lradius 83.1796
lwrist 45.749
lhand -49.0257 -8.98123
lfingers 7.12502
lthumb -21.6537 19.8279
rfemur 551.021 -170.795 -530.491
rtibia 28.8137
rfoot -31.0712 5.64175
rtoes -29.2814
lfemur 339.048 4.95293 346.801
ltibia 48.1622
lfoot -14.867 4.84132
ltoes -24.7565
74
root -2.12019 18.1345 12.7885 -185.717 22.121 178.826
lowerback -7.0618 4.08221 -0.448623
upperback 7.65122 6.50198 -3.51036
thorax 12.6697 3.47671 -2.35822
lowerneck -5.17889 1.63007 5.31621
upperneck 15.7387 2.629 -2.48016
head 5.69882 1.65238 -1.4648
rclavicle -5.60573e-014 2.78299e-014
rhumerus 46.1446 18.6382 -77.8923
rradius 91.5137
rwrist 37.1254
rhand -49.9837 12.5435
rfingers 7.12502
rthumb -22.5735 -16.1567
lclavicle -5.60573e-014 2.78299e-014
lhumerus 41.9033 -27.1593 77.5219
lradius 82.7591
lwrist 46.1459
lhand -49.2955 -8.72239
lfingers 7.12502
lthumb -21.9128 20.0567
rfemur 550.946 -170.757 -530.157
rtibia 28.7628
rfoot -31.0489 5.71601
rtoes -28.6491
lfemur 338.955 5.21459 347.092
ltibia 47.974
lfoot -14.6091 4.41722
ltoes -24.8267
75
root -2.09819 18.1433 12.8426 -185.691 21.9093 178.917
lowerback -7.35402 3.98931 -0.263927
upperback 7.65927 6.33866 -3.43674
thorax 12.8612 3.40275 -2.38966
lowerneck -5.1332 1.65453 5.26339
upperneck 15.7939 2.67828 -2.47464
head 5.70933 1.67738 -1.45118
rclavicle -3.77691e-015 -2.22639e-014
rhumerus 46.3623 18.8169 -77.7073
rradius 91.4202
rwrist 36.9415
rhand -50.2011 12.8101
rfingers 7.12502
rthumb -22.7821 -15.8647
lclavicle -3.77691e-015 -2.22639e-014
lhumerus 41.8962 -26.6445 77.9015
lradius 82.3151
lwrist 46.5189
lhand -49.4948 -8.5703
lfingers 7.12502
lthumb -22.1042 20.1862
rfemur 550.864 -170.749 -529.866
rtibia 28.7098
rfoot -30.973 5.72553
rtoes -28.1034
lfemur 338.874 5.43027 347.311
ltibia 47.7431
lfoot -14.3357 4.04822
ltoes -24.8878
